# xmcd
#
# Track frame offsets:
#	150
#	24220
#	44026
#	58368
#	83764
#	97694
#	119222
#	138958
#	158890
#	184679
#	202562
#	228820
#	246318
#	265290
#	288383
#	301571
#	322485
#	341125
#
# Disc length: 4794 seconds
#
# Revision: 3
# Processed by: cddbd v1.5.2PL0 Copyright (c) Steve Scherf et al.
# Submitted via: EZCDAudioConverter 6.0.0.1
#
DISCID=fe12b812
DTITLE=Various Artist - Akella Presents - Modern Electric Blues - vol.24  CD1  New!
DYEAR=2013
DGENRE=Blues
TTITLE0=The ROCKY ATHAS GROUP - Miracle
TTITLE1=DOYLE BRAMHALL - Marry You
TTITLE2=STEVE MILLER BAND - All Your Love (I Miss Loving)
TTITLE3=The HOAX - Superstition
TTITLE4=SNOWY WHITE BLUES PROJECT - Red Wine Blues
TTITLE5=BUDDAHEADS - Through My Eyes
TTITLE6=SHAWN KELLERMAN - Never Give Up
TTITLE7=Dr. HECTOR and The GROOVE INJECTORS - 14 Carat Fool
TTITLE8=STORM WARNING - Long Ride
TTITLE9=ZED MITCHELL - The Lady Lives The Blues
TTITLE10=JIM SUHLER and MONKEY BEAT - Sure As The Sun Rises
TTITLE11=MICK ABRAHAMS - Leaving Home Blues
TTITLE12=L.A. BLUES ALLIANCE - Illinois Blues
TTITLE13=The BEAT DADDYS - After the Mystery
TTITLE14=DEREK MILLER - Ooh La La
TTITLE15=TOM PRINCIPATO - Sweet Angel
TTITLE16=RUDY ROTTA - It's All Over Now Baby Blue
TTITLE17=ZAC HARMON - Miss American Girl
EXTD=
EXTT0=
EXTT1=
EXTT2=
EXTT3=
EXTT4=
EXTT5=
EXTT6=
EXTT7=
EXTT8=
EXTT9=
EXTT10=
EXTT11=
EXTT12=
EXTT13=
EXTT14=
EXTT15=
EXTT16=
EXTT17=
PLAYORDER=
